<svg version="1.1" xmlns="http://www.w3.org/2000/svg" xmlns:xlink="http://www.w3.org/1999/xlink">

  <symbol id="blue">    
    <polygon fill="#56BEC2" points="95.62598419189453,30.836336135864258 50.01266098022461,89.08799743652344 5,30.1356201171875 "/>
    <polygon fill="#ADE0E6" points="72.80658721923828,30.551776885986328 50.99519729614258,88.78388977050781 29.78557777404785,30.217453002929688 "/>
    <polygon fill="#C2E8EA" points="95.3765640258789,30.741958618164062 5.402166843414307,30.177457809448242 29.375293731689453,10 72.56307983398438,10.444523990154266 "/>
    <rect fill="#97D8E6" height="20.26907" width="43.02102" y="10.11113" x="29.45868"/>
    <polygon fill="#68C5DC" points="29.458675384521484,30.478763580322266 51.053123474121094,10.111128881573677 72.64756774902344,30.478763580322266 "/>
    <polygon fill="#ACD7E8" opacity="0.4" points="72.56307983398438,10.444523990154266 50.83027267456055,30.58943748474121 29.375293731689453,10 "/>    
    <g>
      <polygon fill="#F2F2F2" points="21.690610885620117,35.71494674682617 15.721586227416992,31.712364196777344 10.462074279785156,36.49611282348633 14.512507438659668,30.211400985717773 9.788354873657227,23.470552444458008 15.790212631225586,28.363557815551758 21.016891479492188,22.688915252685547 17.391128540039062,30.068199157714844 "/>
      <polygon fill="#F2F2F2" points="15.981701850891113,38.81870460510254 14.487788200378418,31.010704040527344 7.893007755279541,29.750137329101562 14.623562812805176,28.96247100830078 15.710148811340332,20.366790771484375 16.66095733642578,28.804832458496094 23.798843383789062,29.434894561767578 16.66095733642578,31.325965881347656 "/>
    </g>
    <g>
      <polygon fill="#F2F2F2" points="33.610206604003906,38.322574615478516 29.898847579956055,35.64008331298828 26.628759384155273,38.84612846374512 29.14727783203125,34.633867263793945 26.209991455078125,30.11655616760254 29.9416446685791,33.39561462402344 33.19144058227539,29.59251594543457 30.937095642089844,34.53807258605957 "/>
      <polygon fill="#F2F2F2" points="30.06081771850586,40.402435302734375 29.131778717041016,35.16952705383301 25.031166076660156,34.325117111206055 29.21627426147461,33.796892166137695 29.891834259033203,28.03622055053711 30.482908248901367,33.69134521484375 34.921119689941406,34.11401176452637 30.482908248901367,35.381080627441406 "/>
    </g>
    <g>
      <polygon fill="#F2F2F2" points="69.03508758544922,49.93876647949219 66.814697265625,48.62983322143555 64.85774230957031,50.19404983520508 66.36492919921875,48.13882064819336 64.60721588134766,45.93479919433594 66.84015655517578,47.53479766845703 68.7845687866211,45.679054260253906 67.43566131591797,48.09185028076172 "/>
      <polygon fill="#F2F2F2" points="66.9113540649414,50.953369140625 66.3553466796875,48.400150299072266 63.902130126953125,47.9881591796875 66.4058837890625,47.730567932128906 66.81027221679688,44.91973876953125 67.16410064697266,47.6789436340332 69.81950378417969,47.884944915771484 67.16410064697266,48.50337219238281 "/>
    </g>
    <g>
      <polygon fill="#F2F2F2" points="92.0979995727539,32.1378231048584 89.87722778320312,30.828901290893555 87.92064666748047,32.39310836791992 89.4274673461914,30.337879180908203 87.67011260986328,28.13385772705078 89.9030532836914,29.733875274658203 91.84747314453125,27.878131866455078 90.49856567382812,30.2913818359375 "/>
      <polygon fill="#F2F2F2" points="89.97425842285156,33.15242576599121 89.41824340820312,30.599206924438477 86.96466827392578,30.18723487854004 89.46878814697266,29.929624557495117 89.87317657470703,27.118812561035156 90.22663879394531,29.87801742553711 92.88241577148438,30.084003448486328 90.22663879394531,30.702430725097656 "/>
    </g> 
 	</symbol>


	<symbol id="green">	   
    <polygon fill="#40A629" points="95.62598419189453,30.836336135864258 50.01266098022461,89.08799743652344 5,30.1356201171875 "/>		
    <polygon fill="#80C41C" points="72.80658721923828,30.551776885986328 50.99519729614258,88.78388977050781 29.78557777404785,30.217453002929688 "/>
    <polygon fill="#80C41C" points="95.3765640258789,30.741958618164062 5.402166843414307,30.177457809448242 29.375293731689453,10 72.56307983398438,10.444523990154266 "/>
    <rect opacity="0.8" fill="#77b41a" height="20.26907" width="43.02102" y="10.11113" x="29.45868"/>
    <polygon opacity="0.4" fill="#40A629" points="29.458675384521484,30.478763580322266 51.053123474121094,10.111128881573677 72.64756774902344,30.478763580322266 "/>
    <polygon opacity="0.6" fill="#80C41C" points="72.56307983398438,10.444523990154266 50.83027267456055,30.58943748474121 29.375293731689453,10 "/>    
    <g>
      <polygon fill="#F2F2F2" points="21.690610885620117,35.71494674682617 15.721586227416992,31.712364196777344 10.462074279785156,36.49611282348633 14.512507438659668,30.211400985717773 9.788354873657227,23.470552444458008 15.790212631225586,28.363557815551758 21.016891479492188,22.688915252685547 17.391128540039062,30.068199157714844 "/>
      <polygon fill="#F2F2F2" points="15.981701850891113,38.81870460510254 14.487788200378418,31.010704040527344 7.893007755279541,29.750137329101562 14.623562812805176,28.96247100830078 15.710148811340332,20.366790771484375 16.66095733642578,28.804832458496094 23.798843383789062,29.434894561767578 16.66095733642578,31.325965881347656 "/>
    </g>
    <g>
      <polygon fill="#F2F2F2" points="33.610206604003906,38.322574615478516 29.898847579956055,35.64008331298828 26.628759384155273,38.84612846374512 29.14727783203125,34.633867263793945 26.209991455078125,30.11655616760254 29.9416446685791,33.39561462402344 33.19144058227539,29.59251594543457 30.937095642089844,34.53807258605957 "/>
      <polygon fill="#F2F2F2" points="30.06081771850586,40.402435302734375 29.131778717041016,35.16952705383301 25.031166076660156,34.325117111206055 29.21627426147461,33.796892166137695 29.891834259033203,28.03622055053711 30.482908248901367,33.69134521484375 34.921119689941406,34.11401176452637 30.482908248901367,35.381080627441406 "/>
    </g>
    <g>
      <polygon fill="#F2F2F2" points="69.03508758544922,49.93876647949219 66.814697265625,48.62983322143555 64.85774230957031,50.19404983520508 66.36492919921875,48.13882064819336 64.60721588134766,45.93479919433594 66.84015655517578,47.53479766845703 68.7845687866211,45.679054260253906 67.43566131591797,48.09185028076172 "/>
      <polygon fill="#F2F2F2" points="66.9113540649414,50.953369140625 66.3553466796875,48.400150299072266 63.902130126953125,47.9881591796875 66.4058837890625,47.730567932128906 66.81027221679688,44.91973876953125 67.16410064697266,47.6789436340332 69.81950378417969,47.884944915771484 67.16410064697266,48.50337219238281 "/>
    </g>
    <g>
      <polygon fill="#F2F2F2" points="92.0979995727539,32.1378231048584 89.87722778320312,30.828901290893555 87.92064666748047,32.39310836791992 89.4274673461914,30.337879180908203 87.67011260986328,28.13385772705078 89.9030532836914,29.733875274658203 91.84747314453125,27.878131866455078 90.49856567382812,30.2913818359375 "/>
      <polygon fill="#F2F2F2" points="89.97425842285156,33.15242576599121 89.41824340820312,30.599206924438477 86.96466827392578,30.18723487854004 89.46878814697266,29.929624557495117 89.87317657470703,27.118812561035156 90.22663879394531,29.87801742553711 92.88241577148438,30.084003448486328 90.22663879394531,30.702430725097656 "/>
    </g> 
 	</symbol>


	<symbol id="violet">    
    <polygon fill="#7F82BC" points="95.62598419189453,30.836336135864258 50.01266098022461,89.08799743652344 5,30.1356201171875 "/>
    <polygon fill="#AAA9D1" points="72.80658721923828,30.551776885986328 50.99519729614258,88.78388977050781 29.78557777404785,30.217453002929688 "/>
    <polygon fill="#AAAFD4" points="95.3765640258789,30.741958618164062 5.402166843414307,30.177457809448242 29.375293731689453,10 72.56307983398438,10.444523990154266 "/>
    <rect opacity="0.5" fill="#7F82BC" height="20.26907" width="43.02102" y="10.11113" x="29.45868"/>
    <polygon opacity="0.5" fill="#7F82BC" points="29.458675384521484,30.478763580322266 51.053123474121094,10.111128881573677 72.64756774902344,30.478763580322266 "/>
    <polygon opacity="0.4" fill="#AAA9D1" points="72.56307983398438,10.444523990154266 50.83027267456055,30.58943748474121 29.375293731689453,10 "/>    
    <g>
      <polygon fill="#F2F2F2" points="21.690610885620117,35.71494674682617 15.721586227416992,31.712364196777344 10.462074279785156,36.49611282348633 14.512507438659668,30.211400985717773 9.788354873657227,23.470552444458008 15.790212631225586,28.363557815551758 21.016891479492188,22.688915252685547 17.391128540039062,30.068199157714844 "/>
      <polygon fill="#F2F2F2" points="15.981701850891113,38.81870460510254 14.487788200378418,31.010704040527344 7.893007755279541,29.750137329101562 14.623562812805176,28.96247100830078 15.710148811340332,20.366790771484375 16.66095733642578,28.804832458496094 23.798843383789062,29.434894561767578 16.66095733642578,31.325965881347656 "/>
    </g>
    <g>
      <polygon fill="#F2F2F2" points="33.610206604003906,38.322574615478516 29.898847579956055,35.64008331298828 26.628759384155273,38.84612846374512 29.14727783203125,34.633867263793945 26.209991455078125,30.11655616760254 29.9416446685791,33.39561462402344 33.19144058227539,29.59251594543457 30.937095642089844,34.53807258605957 "/>
      <polygon fill="#F2F2F2" points="30.06081771850586,40.402435302734375 29.131778717041016,35.16952705383301 25.031166076660156,34.325117111206055 29.21627426147461,33.796892166137695 29.891834259033203,28.03622055053711 30.482908248901367,33.69134521484375 34.921119689941406,34.11401176452637 30.482908248901367,35.381080627441406 "/>
    </g>
    <g>
      <polygon fill="#F2F2F2" points="69.03508758544922,49.93876647949219 66.814697265625,48.62983322143555 64.85774230957031,50.19404983520508 66.36492919921875,48.13882064819336 64.60721588134766,45.93479919433594 66.84015655517578,47.53479766845703 68.7845687866211,45.679054260253906 67.43566131591797,48.09185028076172 "/>
      <polygon fill="#F2F2F2" points="66.9113540649414,50.953369140625 66.3553466796875,48.400150299072266 63.902130126953125,47.9881591796875 66.4058837890625,47.730567932128906 66.81027221679688,44.91973876953125 67.16410064697266,47.6789436340332 69.81950378417969,47.884944915771484 67.16410064697266,48.50337219238281 "/>
    </g>
    <g>
      <polygon fill="#F2F2F2" points="92.0979995727539,32.1378231048584 89.87722778320312,30.828901290893555 87.92064666748047,32.39310836791992 89.4274673461914,30.337879180908203 87.67011260986328,28.13385772705078 89.9030532836914,29.733875274658203 91.84747314453125,27.878131866455078 90.49856567382812,30.2913818359375 "/>
      <polygon fill="#F2F2F2" points="89.97425842285156,33.15242576599121 89.41824340820312,30.599206924438477 86.96466827392578,30.18723487854004 89.46878814697266,29.929624557495117 89.87317657470703,27.118812561035156 90.22663879394531,29.87801742553711 92.88241577148438,30.084003448486328 90.22663879394531,30.702430725097656 "/>
    </g> 
 	</symbol>	 


	<symbol id="red">    
    <polygon fill="#df1d27" points="95.62598419189453,30.836336135864258 50.01266098022461,89.08799743652344 5,30.1356201171875 "/>
    <polygon fill="#FE330A" points="72.80658721923828,30.551776885986328 50.99519729614258,88.78388977050781 29.78557777404785,30.217453002929688 "/>
    <polygon fill="#FF0000" points="95.3765640258789,30.741958618164062 5.402166843414307,30.177457809448242 29.375293731689453,10 72.56307983398438,10.444523990154266 "/>
    <rect opacity="0.2" fill="#C2000B" height="20.26907" width="43.02102" y="10.11113" x="29.45868"/>
    <polygon opacity="0.8" fill="#FD1A16" points="29.458675384521484,30.478763580322266 51.053123474121094,10.111128881573677 72.64756774902344,30.478763580322266 "/>
    <polygon opacity="0.6" fill="#FE330A" points="72.56307983398438,10.444523990154266 50.83027267456055,30.58943748474121 29.375293731689453,10 "/>    
    <g>
      <polygon fill="#F2F2F2" points="21.690610885620117,35.71494674682617 15.721586227416992,31.712364196777344 10.462074279785156,36.49611282348633 14.512507438659668,30.211400985717773 9.788354873657227,23.470552444458008 15.790212631225586,28.363557815551758 21.016891479492188,22.688915252685547 17.391128540039062,30.068199157714844 "/>
      <polygon fill="#F2F2F2" points="15.981701850891113,38.81870460510254 14.487788200378418,31.010704040527344 7.893007755279541,29.750137329101562 14.623562812805176,28.96247100830078 15.710148811340332,20.366790771484375 16.66095733642578,28.804832458496094 23.798843383789062,29.434894561767578 16.66095733642578,31.325965881347656 "/>
    </g>
    <g>
      <polygon fill="#F2F2F2" points="33.610206604003906,38.322574615478516 29.898847579956055,35.64008331298828 26.628759384155273,38.84612846374512 29.14727783203125,34.633867263793945 26.209991455078125,30.11655616760254 29.9416446685791,33.39561462402344 33.19144058227539,29.59251594543457 30.937095642089844,34.53807258605957 "/>
      <polygon fill="#F2F2F2" points="30.06081771850586,40.402435302734375 29.131778717041016,35.16952705383301 25.031166076660156,34.325117111206055 29.21627426147461,33.796892166137695 29.891834259033203,28.03622055053711 30.482908248901367,33.69134521484375 34.921119689941406,34.11401176452637 30.482908248901367,35.381080627441406 "/>
    </g>
    <g>
      <polygon fill="#F2F2F2" points="69.03508758544922,49.93876647949219 66.814697265625,48.62983322143555 64.85774230957031,50.19404983520508 66.36492919921875,48.13882064819336 64.60721588134766,45.93479919433594 66.84015655517578,47.53479766845703 68.7845687866211,45.679054260253906 67.43566131591797,48.09185028076172 "/>
      <polygon fill="#F2F2F2" points="66.9113540649414,50.953369140625 66.3553466796875,48.400150299072266 63.902130126953125,47.9881591796875 66.4058837890625,47.730567932128906 66.81027221679688,44.91973876953125 67.16410064697266,47.6789436340332 69.81950378417969,47.884944915771484 67.16410064697266,48.50337219238281 "/>
    </g>
    <g>
      <polygon fill="#F2F2F2" points="92.0979995727539,32.1378231048584 89.87722778320312,30.828901290893555 87.92064666748047,32.39310836791992 89.4274673461914,30.337879180908203 87.67011260986328,28.13385772705078 89.9030532836914,29.733875274658203 91.84747314453125,27.878131866455078 90.49856567382812,30.2913818359375 "/>
      <polygon fill="#F2F2F2" points="89.97425842285156,33.15242576599121 89.41824340820312,30.599206924438477 86.96466827392578,30.18723487854004 89.46878814697266,29.929624557495117 89.87317657470703,27.118812561035156 90.22663879394531,29.87801742553711 92.88241577148438,30.084003448486328 90.22663879394531,30.702430725097656 "/>
    </g> 
 	</symbol>


	<symbol id="pink">    
    <polygon fill="#F4136B" points="95.62598419189453,30.836336135864258 50.01266098022461,89.08799743652344 5,30.1356201171875 "/>
    <polygon fill="#F7A9C8" points="72.80658721923828,30.551776885986328 50.99519729614258,88.78388977050781 29.78557777404785,30.217453002929688 "/>
    <polygon fill="#F77EBB" points="95.3765640258789,30.741958618164062 5.402166843414307,30.177457809448242 29.375293731689453,10 72.56307983398438,10.444523990154266 "/>
    <rect opacity="0.2" fill="#F0047F" height="20.26907" width="43.02102" y="10.11113" x="29.45868"/>
    <polygon opacity="0.5" fill="#F4136B" points="29.458675384521484,30.478763580322266 51.053123474121094,10.111128881573677 72.64756774902344,30.478763580322266 "/>
    <polygon opacity="0.3" fill="#F0047F" points="72.56307983398438,10.444523990154266 50.83027267456055,30.58943748474121 29.375293731689453,10 "/>    
    <g>
      <polygon fill="#F2F2F2" points="21.690610885620117,35.71494674682617 15.721586227416992,31.712364196777344 10.462074279785156,36.49611282348633 14.512507438659668,30.211400985717773 9.788354873657227,23.470552444458008 15.790212631225586,28.363557815551758 21.016891479492188,22.688915252685547 17.391128540039062,30.068199157714844 "/>
      <polygon fill="#F2F2F2" points="15.981701850891113,38.81870460510254 14.487788200378418,31.010704040527344 7.893007755279541,29.750137329101562 14.623562812805176,28.96247100830078 15.710148811340332,20.366790771484375 16.66095733642578,28.804832458496094 23.798843383789062,29.434894561767578 16.66095733642578,31.325965881347656 "/>
    </g>
    <g>
      <polygon fill="#F2F2F2" points="33.610206604003906,38.322574615478516 29.898847579956055,35.64008331298828 26.628759384155273,38.84612846374512 29.14727783203125,34.633867263793945 26.209991455078125,30.11655616760254 29.9416446685791,33.39561462402344 33.19144058227539,29.59251594543457 30.937095642089844,34.53807258605957 "/>
      <polygon fill="#F2F2F2" points="30.06081771850586,40.402435302734375 29.131778717041016,35.16952705383301 25.031166076660156,34.325117111206055 29.21627426147461,33.796892166137695 29.891834259033203,28.03622055053711 30.482908248901367,33.69134521484375 34.921119689941406,34.11401176452637 30.482908248901367,35.381080627441406 "/>
    </g>
    <g>
      <polygon fill="#F2F2F2" points="69.03508758544922,49.93876647949219 66.814697265625,48.62983322143555 64.85774230957031,50.19404983520508 66.36492919921875,48.13882064819336 64.60721588134766,45.93479919433594 66.84015655517578,47.53479766845703 68.7845687866211,45.679054260253906 67.43566131591797,48.09185028076172 "/>
      <polygon fill="#F2F2F2" points="66.9113540649414,50.953369140625 66.3553466796875,48.400150299072266 63.902130126953125,47.9881591796875 66.4058837890625,47.730567932128906 66.81027221679688,44.91973876953125 67.16410064697266,47.6789436340332 69.81950378417969,47.884944915771484 67.16410064697266,48.50337219238281 "/>
    </g>
    <g>
      <polygon fill="#F2F2F2" points="92.0979995727539,32.1378231048584 89.87722778320312,30.828901290893555 87.92064666748047,32.39310836791992 89.4274673461914,30.337879180908203 87.67011260986328,28.13385772705078 89.9030532836914,29.733875274658203 91.84747314453125,27.878131866455078 90.49856567382812,30.2913818359375 "/>
      <polygon fill="#F2F2F2" points="89.97425842285156,33.15242576599121 89.41824340820312,30.599206924438477 86.96466827392578,30.18723487854004 89.46878814697266,29.929624557495117 89.87317657470703,27.118812561035156 90.22663879394531,29.87801742553711 92.88241577148438,30.084003448486328 90.22663879394531,30.702430725097656 "/>
    </g> 
 	</symbol>


	<symbol id="grey">    
    <polygon fill="#CCCCCC" points="95.62598419189453,30.836336135864258 50.01266098022461,89.08799743652344 5,30.1356201171875 "/>
    <polygon fill="#E5E5E5" points="72.80658721923828,30.551776885986328 50.99519729614258,88.78388977050781 29.78557777404785,30.217453002929688 "/>
    <polygon fill="#999999" points="95.3765640258789,30.741958618164062 5.402166843414307,30.177457809448242 29.375293731689453,10 72.56307983398438,10.444523990154266 "/>
    <rect fill="#E5E5E5" height="20.26907" width="43.02102" y="10.11113" x="29.45868"/>
    <polygon opacity="0.5" fill="#B3B3B3" points="29.458675384521484,30.478763580322266 51.053123474121094,10.111128881573677 72.64756774902344,30.478763580322266 "/>
    <polygon fill="#B3B3B3" points="72.56307983398438,10.444523990154266 50.83027267456055,30.58943748474121 29.375293731689453,10 "/>    
    <g>
      <polygon fill="#F2F2F2" points="21.690610885620117,35.71494674682617 15.721586227416992,31.712364196777344 10.462074279785156,36.49611282348633 14.512507438659668,30.211400985717773 9.788354873657227,23.470552444458008 15.790212631225586,28.363557815551758 21.016891479492188,22.688915252685547 17.391128540039062,30.068199157714844 "/>
      <polygon fill="#F2F2F2" points="15.981701850891113,38.81870460510254 14.487788200378418,31.010704040527344 7.893007755279541,29.750137329101562 14.623562812805176,28.96247100830078 15.710148811340332,20.366790771484375 16.66095733642578,28.804832458496094 23.798843383789062,29.434894561767578 16.66095733642578,31.325965881347656 "/>
    </g>
    <g>
      <polygon fill="#F2F2F2" points="33.610206604003906,38.322574615478516 29.898847579956055,35.64008331298828 26.628759384155273,38.84612846374512 29.14727783203125,34.633867263793945 26.209991455078125,30.11655616760254 29.9416446685791,33.39561462402344 33.19144058227539,29.59251594543457 30.937095642089844,34.53807258605957 "/>
      <polygon fill="#F2F2F2" points="30.06081771850586,40.402435302734375 29.131778717041016,35.16952705383301 25.031166076660156,34.325117111206055 29.21627426147461,33.796892166137695 29.891834259033203,28.03622055053711 30.482908248901367,33.69134521484375 34.921119689941406,34.11401176452637 30.482908248901367,35.381080627441406 "/>
    </g>
    <g>
      <polygon fill="#F2F2F2" points="69.03508758544922,49.93876647949219 66.814697265625,48.62983322143555 64.85774230957031,50.19404983520508 66.36492919921875,48.13882064819336 64.60721588134766,45.93479919433594 66.84015655517578,47.53479766845703 68.7845687866211,45.679054260253906 67.43566131591797,48.09185028076172 "/>
      <polygon fill="#F2F2F2" points="66.9113540649414,50.953369140625 66.3553466796875,48.400150299072266 63.902130126953125,47.9881591796875 66.4058837890625,47.730567932128906 66.81027221679688,44.91973876953125 67.16410064697266,47.6789436340332 69.81950378417969,47.884944915771484 67.16410064697266,48.50337219238281 "/>
    </g>
    <g>
      <polygon fill="#F2F2F2" points="92.0979995727539,32.1378231048584 89.87722778320312,30.828901290893555 87.92064666748047,32.39310836791992 89.4274673461914,30.337879180908203 87.67011260986328,28.13385772705078 89.9030532836914,29.733875274658203 91.84747314453125,27.878131866455078 90.49856567382812,30.2913818359375 "/>
      <polygon fill="#F2F2F2" points="89.97425842285156,33.15242576599121 89.41824340820312,30.599206924438477 86.96466827392578,30.18723487854004 89.46878814697266,29.929624557495117 89.87317657470703,27.118812561035156 90.22663879394531,29.87801742553711 92.88241577148438,30.084003448486328 90.22663879394531,30.702430725097656 "/>
    </g> 
 	</symbol>
  
  <symbol id="yellow">    
    <polygon fill="#F7F06A" points="95.62598419189453,30.836336135864258 50.01266098022461,89.08799743652344 5,30.1356201171875 "/>
    <polygon fill="#F2F8A9" points="72.80658721923828,30.551776885986328 50.99519729614258,88.78388977050781 29.78557777404785,30.217453002929688 "/>
    <polygon fill="#F7FA80" points="95.3765640258789,30.741958618164062 5.402166843414307,30.177457809448242 29.375293731689453,10 72.56307983398438,10.444523990154266 "/>
    <rect opacity="0.1" fill="#FD1A16" height="20.26907" width="43.02102" y="10.11113" x="29.45868"/>
    <polygon fill="#F7F06A" points="29.458675384521484,30.478763580322266 51.053123474121094,10.111128881573677 72.64756774902344,30.478763580322266 "/>
    <polygon fill="#F2F8A9" points="72.56307983398438,10.444523990154266 50.83027267456055,30.58943748474121 29.375293731689453,10 "/>    
    <g>
      <polygon fill="#F2F2F2" points="21.690610885620117,35.71494674682617 15.721586227416992,31.712364196777344 10.462074279785156,36.49611282348633 14.512507438659668,30.211400985717773 9.788354873657227,23.470552444458008 15.790212631225586,28.363557815551758 21.016891479492188,22.688915252685547 17.391128540039062,30.068199157714844 "/>
      <polygon fill="#F2F2F2" points="15.981701850891113,38.81870460510254 14.487788200378418,31.010704040527344 7.893007755279541,29.750137329101562 14.623562812805176,28.96247100830078 15.710148811340332,20.366790771484375 16.66095733642578,28.804832458496094 23.798843383789062,29.434894561767578 16.66095733642578,31.325965881347656 "/>
    </g>
    <g>
      <polygon fill="#F2F2F2" points="33.610206604003906,38.322574615478516 29.898847579956055,35.64008331298828 26.628759384155273,38.84612846374512 29.14727783203125,34.633867263793945 26.209991455078125,30.11655616760254 29.9416446685791,33.39561462402344 33.19144058227539,29.59251594543457 30.937095642089844,34.53807258605957 "/>
      <polygon fill="#F2F2F2" points="30.06081771850586,40.402435302734375 29.131778717041016,35.16952705383301 25.031166076660156,34.325117111206055 29.21627426147461,33.796892166137695 29.891834259033203,28.03622055053711 30.482908248901367,33.69134521484375 34.921119689941406,34.11401176452637 30.482908248901367,35.381080627441406 "/>
    </g>
    <g>
      <polygon fill="#F2F2F2" points="69.03508758544922,49.93876647949219 66.814697265625,48.62983322143555 64.85774230957031,50.19404983520508 66.36492919921875,48.13882064819336 64.60721588134766,45.93479919433594 66.84015655517578,47.53479766845703 68.7845687866211,45.679054260253906 67.43566131591797,48.09185028076172 "/>
      <polygon fill="#F2F2F2" points="66.9113540649414,50.953369140625 66.3553466796875,48.400150299072266 63.902130126953125,47.9881591796875 66.4058837890625,47.730567932128906 66.81027221679688,44.91973876953125 67.16410064697266,47.6789436340332 69.81950378417969,47.884944915771484 67.16410064697266,48.50337219238281 "/>
    </g>
    <g>
      <polygon fill="#F2F2F2" points="92.0979995727539,32.1378231048584 89.87722778320312,30.828901290893555 87.92064666748047,32.39310836791992 89.4274673461914,30.337879180908203 87.67011260986328,28.13385772705078 89.9030532836914,29.733875274658203 91.84747314453125,27.878131866455078 90.49856567382812,30.2913818359375 "/>
      <polygon fill="#F2F2F2" points="89.97425842285156,33.15242576599121 89.41824340820312,30.599206924438477 86.96466827392578,30.18723487854004 89.46878814697266,29.929624557495117 89.87317657470703,27.118812561035156 90.22663879394531,29.87801742553711 92.88241577148438,30.084003448486328 90.22663879394531,30.702430725097656 "/>
    </g> 
 	</symbol>

	<symbol id="marker">
		<path stroke="orange" fill="gold" d='M 0 0 h 30 v 5 h -25 v 25 h -5 Z' />
    <path stroke="orange" fill="gold" d='M 100 0 h -30 v 5 h 25 v 25 h 5 Z' />
    <path stroke="orange" fill="gold" d='M 0 100 h 30 v -5 h -25 v -25 h -5 Z' />
    <path stroke="orange" fill="gold" d='M 100 100 h -30 v -5 h 25 v -25 h 5 Z' />
	</symbol>

  <symbol id="arrow-left">
		<polyline stroke="white" fill="none" points='0,0 40,20 0,40 10,20 0,0' stroke-width="3" stroke-linejoin="round" />    
	</symbol>
  <symbol id="arrow-right">
		<polygon stroke="white" fill="none" points='0,20 40,0 30,20 40,40 0,20' stroke-width="3" stroke-linejoin="round" />    
	</symbol>
  <symbol id="arrow-top">
		<polygon stroke="white" fill="none" points='0,0 20,10 40,0 20,40 0,0' stroke-width="3" stroke-linejoin="round" />    
	</symbol>
  <symbol id="arrow-bottom">
		<polygon stroke="white" fill="none" points='20,0 40,40 20,30 0,40 20,0' stroke-width="3" stroke-linejoin="round" />    
	</symbol>   

</svg>